<mxfile host="app.diagrams.net" agent="Mozilla/5.0 (Windows NT 10.0; Win64; x64) AppleWebKit/537.36 (KHTML, like Gecko) Chrome/135.0.0.0 Safari/537.36 Edg/135.0.0.0" version="24.7.13">
  <diagram id="C5RBs43oDa-KdzZeNtuy" name="Page-1">
    <mxGraphModel dx="1379" dy="783" grid="1" gridSize="10" guides="1" tooltips="1" connect="1" arrows="1" fold="1" page="1" pageScale="1" pageWidth="827" pageHeight="1169" math="0" shadow="0">
      <root>
        <mxCell id="WIyWlLk6GJQsqaUBKTNV-0" />
        <mxCell id="WIyWlLk6GJQsqaUBKTNV-1" parent="WIyWlLk6GJQsqaUBKTNV-0" />
        <UserObject label="" plantUmlData="{&#xa;  &quot;data&quot;: &quot;@startuml\nrectangle 数据准备 {\n    审查要求 --&gt; 系统数据库\n    基础数据 --&gt; 系统数据库\n    图片资料 --&gt; 系统数据库\n}\nrectangle 任务处理 {\n    数据校验 --&gt; OCR识别\n    OCR识别 --&gt; 智能审查\n}\nrectangle 结果输出 {\n    审查结果 --&gt; 导出报表\n}\n@enduml&quot;,&#xa;  &quot;format&quot;: &quot;svg&quot;&#xa;}" id="maRcuq5QM-8XsNMRseJa-0">
          <mxCell style="shape=image;noLabel=1;verticalAlign=top;aspect=fixed;imageAspect=0;image=data:image/svg+xml,PHN2ZyB4bWxucz0iaHR0cDovL3d3dy53My5vcmcvMjAwMC9zdmciIHhtbG5zOnhsaW5rPSJodHRwOi8vd3d3LnczLm9yZy8xOTk5L3hsaW5rIiBjb250ZW50U3R5bGVUeXBlPSJ0ZXh0L2NzcyIgZGF0YS1kaWFncmFtLXR5cGU9IkNMQVNTIiBoZWlnaHQ9IjMyNnB4IiBwcmVzZXJ2ZUFzcGVjdFJhdGlvPSJub25lIiBzdHlsZT0id2lkdGg6NjY3cHg7aGVpZ2h0OjMyNnB4O2JhY2tncm91bmQ6I0ZGRkZGRjsiIHZlcnNpb249IjEuMSIgdmlld0JveD0iMCAwIDY2NyAzMjYiIHdpZHRoPSI2NjdweCIgem9vbUFuZFBhbj0ibWFnbmlmeSI+PGRlZnMvPjxnPjwhLS1jbHVzdGVyID8/Pz8tLT48ZyBjbGFzcz0iY2x1c3RlciIgZGF0YS1lbnRpdHk9IiYjMjU5Njg7JiMyNTQ1NDsmIzIwOTM0OyYjMjI3OTE7IiBkYXRhLXNvdXJjZS1saW5lPSIxIiBkYXRhLXVpZD0iZW50MDAwMiIgaWQ9ImNsdXN0ZXJfJiMyNTk2ODsmIzI1NDU0OyYjMjA5MzQ7JiMyMjc5MTsiPjxyZWN0IGZpbGw9Im5vbmUiIGhlaWdodD0iMjA1IiByeD0iMi41IiByeT0iMi41IiBzdHlsZT0ic3Ryb2tlOiMxODE4MTg7c3Ryb2tlLXdpZHRoOjE7IiB3aWR0aD0iMzY2IiB4PSI3IiB5PSI3Ii8+PHRleHQgZmlsbD0iIzAwMDAwMCIgZm9udC1mYW1pbHk9InNhbnMtc2VyaWYiIGZvbnQtc2l6ZT0iMTQiIGZvbnQtd2VpZ2h0PSJib2xkIiBsZW5ndGhBZGp1c3Q9InNwYWNpbmciIHRleHRMZW5ndGg9IjU2IiB4PSIxNjIiIHk9IjIyLjIzNDQiPiYjMjU5Njg7JiMyNTQ1NDsmIzIwOTM0OyYjMjI3OTE7PC90ZXh0PjwvZz48IS0tY2x1c3RlciA/Pz8/LS0+PGcgY2xhc3M9ImNsdXN0ZXIiIGRhdGEtZW50aXR5PSImIzIwMjE5OyYjMjExNTM7JiMyMjc4ODsmIzI5NzAyOyIgZGF0YS1zb3VyY2UtbGluZT0iNiIgZGF0YS11aWQ9ImVudDAwMTAiIGlkPSJjbHVzdGVyXyYjMjAyMTk7JiMyMTE1MzsmIzIyNzg4OyYjMjk3MDI7Ij48cmVjdCBmaWxsPSJub25lIiBoZWlnaHQ9IjMxMyIgcng9IjIuNSIgcnk9IjIuNSIgc3R5bGU9InN0cm9rZTojMTgxODE4O3N0cm9rZS13aWR0aDoxOyIgd2lkdGg9IjEyMCIgeD0iMzk3IiB5PSI3Ii8+PHRleHQgZmlsbD0iIzAwMDAwMCIgZm9udC1mYW1pbHk9InNhbnMtc2VyaWYiIGZvbnQtc2l6ZT0iMTQiIGZvbnQtd2VpZ2h0PSJib2xkIiBsZW5ndGhBZGp1c3Q9InNwYWNpbmciIHRleHRMZW5ndGg9IjU2IiB4PSI0MjkiIHk9IjIyLjIzNDQiPiYjMjAyMTk7JiMyMTE1MzsmIzIyNzg4OyYjMjk3MDI7PC90ZXh0PjwvZz48IS0tY2x1c3RlciA/Pz8/LS0+PGcgY2xhc3M9ImNsdXN0ZXIiIGRhdGEtZW50aXR5PSImIzMyNDY3OyYjMjY1MjQ7JiMzNjc1NTsmIzIwOTg2OyIgZGF0YS1zb3VyY2UtbGluZT0iMTAiIGRhdGEtdWlkPSJlbnQwMDE2IiBpZD0iY2x1c3Rlcl8mIzMyNDY3OyYjMjY1MjQ7JiMzNjc1NTsmIzIwOTg2OyI+PHJlY3QgZmlsbD0ibm9uZSIgaGVpZ2h0PSIyMDUiIHJ4PSIyLjUiIHJ5PSIyLjUiIHN0eWxlPSJzdHJva2U6IzE4MTgxODtzdHJva2Utd2lkdGg6MTsiIHdpZHRoPSIxMjAiIHg9IjU0MSIgeT0iNyIvPjx0ZXh0IGZpbGw9IiMwMDAwMDAiIGZvbnQtZmFtaWx5PSJzYW5zLXNlcmlmIiBmb250LXNpemU9IjE0IiBmb250LXdlaWdodD0iYm9sZCIgbGVuZ3RoQWRqdXN0PSJzcGFjaW5nIiB0ZXh0TGVuZ3RoPSI1NiIgeD0iNTczIiB5PSIyMi4yMzQ0Ij4mIzMyNDY3OyYjMjY1MjQ7JiMzNjc1NTsmIzIwOTg2OzwvdGV4dD48L2c+PCEtLWNsYXNzID8/Pz8tLT48ZyBjbGFzcz0iZW50aXR5IiBkYXRhLWVudGl0eT0iJiMyMzQ1NzsmIzI2NTk3OyYjMzUyMDE7JiMyNzcxNDsiIGRhdGEtc291cmNlLWxpbmU9IjIiIGRhdGEtdWlkPSJlbnQwMDAzIiBpZD0iZW50aXR5XyYjMjM0NTc7JiMyNjU5NzsmIzM1MjAxOyYjMjc3MTQ7Ij48cmVjdCBmaWxsPSIjRjFGMUYxIiBoZWlnaHQ9IjQ4IiByeD0iMi41IiByeT0iMi41IiBzdHlsZT0ic3Ryb2tlOiMxODE4MTg7c3Ryb2tlLXdpZHRoOjAuNTsiIHdpZHRoPSI4OCIgeD0iMjY5IiB5PSI0MCIvPjxlbGxpcHNlIGN4PSIyODQiIGN5PSI1NiIgZmlsbD0iI0FERDFCMiIgcng9IjExIiByeT0iMTEiIHN0eWxlPSJzdHJva2U6IzE4MTgxODtzdHJva2Utd2lkdGg6MTsiLz48cGF0aCBkPSJNMjgxLjYyNSw2MC4yNSBMMjgxLjYyNSw2MiBMMjg2LjU2MjUsNjIgTDI4Ni41NjI1LDYwLjI1IEwyODEuNjI1LDYwLjI1IFogTTI4Mi4zMTI1LDYwLjkzNzUgUTI4Mi4zMTI1LDYwLjkzNzUgMjgyLjMxMjUsNTEuNzUgTDI4MC41NjI1LDUxLjc1IFEyODAuNTYyNSw1MS43NSAyODAuNTYyNSw2MC45Mzc1IEwyODIuMzEyNSw2MC45Mzc1IFogTTI4NS44NzUsNjAuOTM3NSBMMjg3LjYyNSw2MC45Mzc1IFEyODcuNjI1LDYwLjkzNzUgMjg3LjYyNSw1OC4xMjUgTDI4NS44NzUsNTguMTI1IFEyODUuODc1LDU4LjEyNSAyODUuODc1LDYwLjkzNzUgWiBNMjg1Ljg3NSw1MS43NSBRMjg1Ljg3NSw1MS43NSAyODUuODc1LDU0LjU2MjUgTDI4Ny42MjUsNTQuNTYyNSBRMjg3LjYyNSw1NC41NjI1IDI4Ny42MjUsNTEuNzUgTDI4NS44NzUsNTEuNzUgWiBNMjgxLjYyNSw1Mi40Mzc1IEwyODYuNTYyNSw1Mi40Mzc1IEwyODYuNTYyNSw1MC42ODc1IEwyODEuNjI1LDUwLjY4NzUgTDI4MS42MjUsNTIuNDM3NSBaICIgZmlsbD0iIzAwMDAwMCIvPjx0ZXh0IGZpbGw9IiMwMDAwMDAiIGZvbnQtZmFtaWx5PSJzYW5zLXNlcmlmIiBmb250LXNpemU9IjE0IiBsZW5ndGhBZGp1c3Q9InNwYWNpbmciIHRleHRMZW5ndGg9IjU2IiB4PSIyOTgiIHk9IjYxLjc0MjIiPiYjMjM0NTc7JiMyNjU5NzsmIzM1MjAxOyYjMjc3MTQ7PC90ZXh0PjxsaW5lIHN0eWxlPSJzdHJva2U6IzE4MTgxODtzdHJva2Utd2lkdGg6MC41OyIgeDE9IjI3MCIgeDI9IjM1NiIgeTE9IjcyIiB5Mj0iNzIiLz48bGluZSBzdHlsZT0ic3Ryb2tlOiMxODE4MTg7c3Ryb2tlLXdpZHRoOjAuNTsiIHgxPSIyNzAiIHgyPSIzNTYiIHkxPSI4MCIgeTI9IjgwIi8+PC9nPjwhLS1jbGFzcyA/Pz8/Py0tPjxnIGNsYXNzPSJlbnRpdHkiIGRhdGEtZW50aXR5PSImIzMxOTk1OyYjMzI0Nzk7JiMyNTk2ODsmIzI1NDU0OyYjMjQyMTE7IiBkYXRhLXNvdXJjZS1saW5lPSIyIiBkYXRhLXVpZD0iZW50MDAwNCIgaWQ9ImVudGl0eV8mIzMxOTk1OyYjMzI0Nzk7JiMyNTk2ODsmIzI1NDU0OyYjMjQyMTE7Ij48cmVjdCBmaWxsPSIjRjFGMUYxIiBoZWlnaHQ9IjQ4IiByeD0iMi41IiByeT0iMi41IiBzdHlsZT0ic3Ryb2tlOiMxODE4MTg7c3Ryb2tlLXdpZHRoOjAuNTsiIHdpZHRoPSIxMDIiIHg9IjEzOSIgeT0iMTQ4Ii8+PGVsbGlwc2UgY3g9IjE1NCIgY3k9IjE2NCIgZmlsbD0iI0FERDFCMiIgcng9IjExIiByeT0iMTEiIHN0eWxlPSJzdHJva2U6IzE4MTgxODtzdHJva2Utd2lkdGg6MTsiLz48cGF0aCBkPSJNMTUxLjYyNSwxNjguMjUgTDE1MS42MjUsMTcwIEwxNTYuNTYyNSwxNzAgTDE1Ni41NjI1LDE2OC4yNSBMMTUxLjYyNSwxNjguMjUgWiBNMTUyLjMxMjUsMTY4LjkzNzUgUTE1Mi4zMTI1LDE2OC45Mzc1IDE1Mi4zMTI1LDE1OS43NSBMMTUwLjU2MjUsMTU5Ljc1IFExNTAuNTYyNSwxNTkuNzUgMTUwLjU2MjUsMTY4LjkzNzUgTDE1Mi4zMTI1LDE2OC45Mzc1IFogTTE1NS44NzUsMTY4LjkzNzUgTDE1Ny42MjUsMTY4LjkzNzUgUTE1Ny42MjUsMTY4LjkzNzUgMTU3LjYyNSwxNjYuMTI1IEwxNTUuODc1LDE2Ni4xMjUgUTE1NS44NzUsMTY2LjEyNSAxNTUuODc1LDE2OC45Mzc1IFogTTE1NS44NzUsMTU5Ljc1IFExNTUuODc1LDE1OS43NSAxNTUuODc1LDE2Mi41NjI1IEwxNTcuNjI1LDE2Mi41NjI1IFExNTcuNjI1LDE2Mi41NjI1IDE1Ny42MjUsMTU5Ljc1IEwxNTUuODc1LDE1OS43NSBaIE0xNTEuNjI1LDE2MC40Mzc1IEwxNTYuNTYyNSwxNjAuNDM3NSBMMTU2LjU2MjUsMTU4LjY4NzUgTDE1MS42MjUsMTU4LjY4NzUgTDE1MS42MjUsMTYwLjQzNzUgWiAiIGZpbGw9IiMwMDAwMDAiLz48dGV4dCBmaWxsPSIjMDAwMDAwIiBmb250LWZhbWlseT0ic2Fucy1zZXJpZiIgZm9udC1zaXplPSIxNCIgbGVuZ3RoQWRqdXN0PSJzcGFjaW5nIiB0ZXh0TGVuZ3RoPSI3MCIgeD0iMTY4IiB5PSIxNjkuNzQyMiI+JiMzMTk5NTsmIzMyNDc5OyYjMjU5Njg7JiMyNTQ1NDsmIzI0MjExOzwvdGV4dD48bGluZSBzdHlsZT0ic3Ryb2tlOiMxODE4MTg7c3Ryb2tlLXdpZHRoOjAuNTsiIHgxPSIxNDAiIHgyPSIyNDAiIHkxPSIxODAiIHkyPSIxODAiLz48bGluZSBzdHlsZT0ic3Ryb2tlOiMxODE4MTg7c3Ryb2tlLXdpZHRoOjAuNTsiIHgxPSIxNDAiIHgyPSIyNDAiIHkxPSIxODgiIHkyPSIxODgiLz48L2c+PCEtLWNsYXNzID8/Pz8tLT48ZyBjbGFzcz0iZW50aXR5IiBkYXRhLWVudGl0eT0iJiMyMjUyMjsmIzMwNzg0OyYjMjU5Njg7JiMyNTQ1NDsiIGRhdGEtc291cmNlLWxpbmU9IjMiIGRhdGEtdWlkPSJlbnQwMDA2IiBpZD0iZW50aXR5XyYjMjI1MjI7JiMzMDc4NDsmIzI1OTY4OyYjMjU0NTQ7Ij48cmVjdCBmaWxsPSIjRjFGMUYxIiBoZWlnaHQ9IjQ4IiByeD0iMi41IiByeT0iMi41IiBzdHlsZT0ic3Ryb2tlOiMxODE4MTg7c3Ryb2tlLXdpZHRoOjAuNTsiIHdpZHRoPSI4OCIgeD0iMTQ2IiB5PSI0MCIvPjxlbGxpcHNlIGN4PSIxNjEiIGN5PSI1NiIgZmlsbD0iI0FERDFCMiIgcng9IjExIiByeT0iMTEiIHN0eWxlPSJzdHJva2U6IzE4MTgxODtzdHJva2Utd2lkdGg6MTsiLz48cGF0aCBkPSJNMTU4LjYyNSw2MC4yNSBMMTU4LjYyNSw2MiBMMTYzLjU2MjUsNjIgTDE2My41NjI1LDYwLjI1IEwxNTguNjI1LDYwLjI1IFogTTE1OS4zMTI1LDYwLjkzNzUgUTE1OS4zMTI1LDYwLjkzNzUgMTU5LjMxMjUsNTEuNzUgTDE1Ny41NjI1LDUxLjc1IFExNTcuNTYyNSw1MS43NSAxNTcuNTYyNSw2MC45Mzc1IEwxNTkuMzEyNSw2MC45Mzc1IFogTTE2Mi44NzUsNjAuOTM3NSBMMTY0LjYyNSw2MC45Mzc1IFExNjQuNjI1LDYwLjkzNzUgMTY0LjYyNSw1OC4xMjUgTDE2Mi44NzUsNTguMTI1IFExNjIuODc1LDU4LjEyNSAxNjIuODc1LDYwLjkzNzUgWiBNMTYyLjg3NSw1MS43NSBRMTYyLjg3NSw1MS43NSAxNjIuODc1LDU0LjU2MjUgTDE2NC42MjUsNTQuNTYyNSBRMTY0LjYyNSw1NC41NjI1IDE2NC42MjUsNTEuNzUgTDE2Mi44NzUsNTEuNzUgWiBNMTU4LjYyNSw1Mi40Mzc1IEwxNjMuNTYyNSw1Mi40Mzc1IEwxNjMuNTYyNSw1MC42ODc1IEwxNTguNjI1LDUwLjY4NzUgTDE1OC42MjUsNTIuNDM3NSBaICIgZmlsbD0iIzAwMDAwMCIvPjx0ZXh0IGZpbGw9IiMwMDAwMDAiIGZvbnQtZmFtaWx5PSJzYW5zLXNlcmlmIiBmb250LXNpemU9IjE0IiBsZW5ndGhBZGp1c3Q9InNwYWNpbmciIHRleHRMZW5ndGg9IjU2IiB4PSIxNzUiIHk9IjYxLjc0MjIiPiYjMjI1MjI7JiMzMDc4NDsmIzI1OTY4OyYjMjU0NTQ7PC90ZXh0PjxsaW5lIHN0eWxlPSJzdHJva2U6IzE4MTgxODtzdHJva2Utd2lkdGg6MC41OyIgeDE9IjE0NyIgeDI9IjIzMyIgeTE9IjcyIiB5Mj0iNzIiLz48bGluZSBzdHlsZT0ic3Ryb2tlOiMxODE4MTg7c3Ryb2tlLXdpZHRoOjAuNTsiIHgxPSIxNDciIHgyPSIyMzMiIHkxPSI4MCIgeTI9IjgwIi8+PC9nPjwhLS1jbGFzcyA/Pz8/LS0+PGcgY2xhc3M9ImVudGl0eSIgZGF0YS1lbnRpdHk9IiYjMjIyNzA7JiMyOTI1NTsmIzM2MTY0OyYjMjYwMDk7IiBkYXRhLXNvdXJjZS1saW5lPSI0IiBkYXRhLXVpZD0iZW50MDAwOCIgaWQ9ImVudGl0eV8mIzIyMjcwOyYjMjkyNTU7JiMzNjE2NDsmIzI2MDA5OyI+PHJlY3QgZmlsbD0iI0YxRjFGMSIgaGVpZ2h0PSI0OCIgcng9IjIuNSIgcnk9IjIuNSIgc3R5bGU9InN0cm9rZTojMTgxODE4O3N0cm9rZS13aWR0aDowLjU7IiB3aWR0aD0iODgiIHg9IjIzIiB5PSI0MCIvPjxlbGxpcHNlIGN4PSIzOCIgY3k9IjU2IiBmaWxsPSIjQUREMUIyIiByeD0iMTEiIHJ5PSIxMSIgc3R5bGU9InN0cm9rZTojMTgxODE4O3N0cm9rZS13aWR0aDoxOyIvPjxwYXRoIGQ9Ik0zNS42MjUsNjAuMjUgTDM1LjYyNSw2MiBMNDAuNTYyNSw2MiBMNDAuNTYyNSw2MC4yNSBMMzUuNjI1LDYwLjI1IFogTTM2LjMxMjUsNjAuOTM3NSBRMzYuMzEyNSw2MC45Mzc1IDM2LjMxMjUsNTEuNzUgTDM0LjU2MjUsNTEuNzUgUTM0LjU2MjUsNTEuNzUgMzQuNTYyNSw2MC45Mzc1IEwzNi4zMTI1LDYwLjkzNzUgWiBNMzkuODc1LDYwLjkzNzUgTDQxLjYyNSw2MC45Mzc1IFE0MS42MjUsNjAuOTM3NSA0MS42MjUsNTguMTI1IEwzOS44NzUsNTguMTI1IFEzOS44NzUsNTguMTI1IDM5Ljg3NSw2MC45Mzc1IFogTTM5Ljg3NSw1MS43NSBRMzkuODc1LDUxLjc1IDM5Ljg3NSw1NC41NjI1IEw0MS42MjUsNTQuNTYyNSBRNDEuNjI1LDU0LjU2MjUgNDEuNjI1LDUxLjc1IEwzOS44NzUsNTEuNzUgWiBNMzUuNjI1LDUyLjQzNzUgTDQwLjU2MjUsNTIuNDM3NSBMNDAuNTYyNSw1MC42ODc1IEwzNS42MjUsNTAuNjg3NSBMMzUuNjI1LDUyLjQzNzUgWiAiIGZpbGw9IiMwMDAwMDAiLz48dGV4dCBmaWxsPSIjMDAwMDAwIiBmb250LWZhbWlseT0ic2Fucy1zZXJpZiIgZm9udC1zaXplPSIxNCIgbGVuZ3RoQWRqdXN0PSJzcGFjaW5nIiB0ZXh0TGVuZ3RoPSI1NiIgeD0iNTIiIHk9IjYxLjc0MjIiPiYjMjIyNzA7JiMyOTI1NTsmIzM2MTY0OyYjMjYwMDk7PC90ZXh0PjxsaW5lIHN0eWxlPSJzdHJva2U6IzE4MTgxODtzdHJva2Utd2lkdGg6MC41OyIgeDE9IjI0IiB4Mj0iMTEwIiB5MT0iNzIiIHkyPSI3MiIvPjxsaW5lIHN0eWxlPSJzdHJva2U6IzE4MTgxODtzdHJva2Utd2lkdGg6MC41OyIgeDE9IjI0IiB4Mj0iMTEwIiB5MT0iODAiIHkyPSI4MCIvPjwvZz48IS0tY2xhc3MgPz8/Py0tPjxnIGNsYXNzPSJlbnRpdHkiIGRhdGEtZW50aXR5PSImIzI1OTY4OyYjMjU0NTQ7JiMyNjY1NzsmIzM5NTY0OyIgZGF0YS1zb3VyY2UtbGluZT0iNyIgZGF0YS11aWQ9ImVudDAwMTEiIGlkPSJlbnRpdHlfJiMyNTk2ODsmIzI1NDU0OyYjMjY2NTc7JiMzOTU2NDsiPjxyZWN0IGZpbGw9IiNGMUYxRjEiIGhlaWdodD0iNDgiIHJ4PSIyLjUiIHJ5PSIyLjUiIHN0eWxlPSJzdHJva2U6IzE4MTgxODtzdHJva2Utd2lkdGg6MC41OyIgd2lkdGg9Ijg4IiB4PSI0MTMiIHk9IjQwIi8+PGVsbGlwc2UgY3g9IjQyOCIgY3k9IjU2IiBmaWxsPSIjQUREMUIyIiByeD0iMTEiIHJ5PSIxMSIgc3R5bGU9InN0cm9rZTojMTgxODE4O3N0cm9rZS13aWR0aDoxOyIvPjxwYXRoIGQ9Ik00MjUuNjI1LDYwLjI1IEw0MjUuNjI1LDYyIEw0MzAuNTYyNSw2MiBMNDMwLjU2MjUsNjAuMjUgTDQyNS42MjUsNjAuMjUgWiBNNDI2LjMxMjUsNjAuOTM3NSBRNDI2LjMxMjUsNjAuOTM3NSA0MjYuMzEyNSw1MS43NSBMNDI0LjU2MjUsNTEuNzUgUTQyNC41NjI1LDUxLjc1IDQyNC41NjI1LDYwLjkzNzUgTDQyNi4zMTI1LDYwLjkzNzUgWiBNNDI5Ljg3NSw2MC45Mzc1IEw0MzEuNjI1LDYwLjkzNzUgUTQzMS42MjUsNjAuOTM3NSA0MzEuNjI1LDU4LjEyNSBMNDI5Ljg3NSw1OC4xMjUgUTQyOS44NzUsNTguMTI1IDQyOS44NzUsNjAuOTM3NSBaIE00MjkuODc1LDUxLjc1IFE0MjkuODc1LDUxLjc1IDQyOS44NzUsNTQuNTYyNSBMNDMxLjYyNSw1NC41NjI1IFE0MzEuNjI1LDU0LjU2MjUgNDMxLjYyNSw1MS43NSBMNDI5Ljg3NSw1MS43NSBaIE00MjUuNjI1LDUyLjQzNzUgTDQzMC41NjI1LDUyLjQzNzUgTDQzMC41NjI1LDUwLjY4NzUgTDQyNS42MjUsNTAuNjg3NSBMNDI1LjYyNSw1Mi40Mzc1IFogIiBmaWxsPSIjMDAwMDAwIi8+PHRleHQgZmlsbD0iIzAwMDAwMCIgZm9udC1mYW1pbHk9InNhbnMtc2VyaWYiIGZvbnQtc2l6ZT0iMTQiIGxlbmd0aEFkanVzdD0ic3BhY2luZyIgdGV4dExlbmd0aD0iNTYiIHg9IjQ0MiIgeT0iNjEuNzQyMiI+JiMyNTk2ODsmIzI1NDU0OyYjMjY2NTc7JiMzOTU2NDs8L3RleHQ+PGxpbmUgc3R5bGU9InN0cm9rZTojMTgxODE4O3N0cm9rZS13aWR0aDowLjU7IiB4MT0iNDE0IiB4Mj0iNTAwIiB5MT0iNzIiIHkyPSI3MiIvPjxsaW5lIHN0eWxlPSJzdHJva2U6IzE4MTgxODtzdHJva2Utd2lkdGg6MC41OyIgeDE9IjQxNCIgeDI9IjUwMCIgeTE9IjgwIiB5Mj0iODAiLz48L2c+PCEtLWNsYXNzIE9DUj8/LS0+PGcgY2xhc3M9ImVudGl0eSIgZGF0YS1lbnRpdHk9Ik9DUiYjMzU3ODI7JiMyMTAzNTsiIGRhdGEtc291cmNlLWxpbmU9IjciIGRhdGEtdWlkPSJlbnQwMDEyIiBpZD0iZW50aXR5X09DUiYjMzU3ODI7JiMyMTAzNTsiPjxyZWN0IGZpbGw9IiNGMUYxRjEiIGhlaWdodD0iNDgiIHJ4PSIyLjUiIHJ5PSIyLjUiIHN0eWxlPSJzdHJva2U6IzE4MTgxODtzdHJva2Utd2lkdGg6MC41OyIgd2lkdGg9IjgxIiB4PSI0MTYuNSIgeT0iMTQ4Ii8+PGVsbGlwc2UgY3g9IjQzMS41IiBjeT0iMTY0IiBmaWxsPSIjQUREMUIyIiByeD0iMTEiIHJ5PSIxMSIgc3R5bGU9InN0cm9rZTojMTgxODE4O3N0cm9rZS13aWR0aDoxOyIvPjxwYXRoIGQ9Ik00MjkuMTI1LDE2OC4yNSBMNDI5LjEyNSwxNzAgTDQzNC4wNjI1LDE3MCBMNDM0LjA2MjUsMTY4LjI1IEw0MjkuMTI1LDE2OC4yNSBaIE00MjkuODEyNSwxNjguOTM3NSBRNDI5LjgxMjUsMTY4LjkzNzUgNDI5LjgxMjUsMTU5Ljc1IEw0MjguMDYyNSwxNTkuNzUgUTQyOC4wNjI1LDE1OS43NSA0MjguMDYyNSwxNjguOTM3NSBMNDI5LjgxMjUsMTY4LjkzNzUgWiBNNDMzLjM3NSwxNjguOTM3NSBMNDM1LjEyNSwxNjguOTM3NSBRNDM1LjEyNSwxNjguOTM3NSA0MzUuMTI1LDE2Ni4xMjUgTDQzMy4zNzUsMTY2LjEyNSBRNDMzLjM3NSwxNjYuMTI1IDQzMy4zNzUsMTY4LjkzNzUgWiBNNDMzLjM3NSwxNTkuNzUgUTQzMy4zNzUsMTU5Ljc1IDQzMy4zNzUsMTYyLjU2MjUgTDQzNS4xMjUsMTYyLjU2MjUgUTQzNS4xMjUsMTYyLjU2MjUgNDM1LjEyNSwxNTkuNzUgTDQzMy4zNzUsMTU5Ljc1IFogTTQyOS4xMjUsMTYwLjQzNzUgTDQzNC4wNjI1LDE2MC40Mzc1IEw0MzQuMDYyNSwxNTguNjg3NSBMNDI5LjEyNSwxNTguNjg3NSBMNDI5LjEyNSwxNjAuNDM3NSBaICIgZmlsbD0iIzAwMDAwMCIvPjx0ZXh0IGZpbGw9IiMwMDAwMDAiIGZvbnQtZmFtaWx5PSJzYW5zLXNlcmlmIiBmb250LXNpemU9IjE0IiBsZW5ndGhBZGp1c3Q9InNwYWNpbmciIHRleHRMZW5ndGg9IjQ5IiB4PSI0NDUuNSIgeT0iMTY5Ljc0MjIiPk9DUiYjMzU3ODI7JiMyMTAzNTs8L3RleHQ+PGxpbmUgc3R5bGU9InN0cm9rZTojMTgxODE4O3N0cm9rZS13aWR0aDowLjU7IiB4MT0iNDE3LjUiIHgyPSI0OTYuNSIgeTE9IjE4MCIgeTI9IjE4MCIvPjxsaW5lIHN0eWxlPSJzdHJva2U6IzE4MTgxODtzdHJva2Utd2lkdGg6MC41OyIgeDE9IjQxNy41IiB4Mj0iNDk2LjUiIHkxPSIxODgiIHkyPSIxODgiLz48L2c+PCEtLWNsYXNzID8/Pz8tLT48ZyBjbGFzcz0iZW50aXR5IiBkYXRhLWVudGl0eT0iJiMyNjIzNDsmIzMzMDIxOyYjMjM0NTc7JiMyNjU5NzsiIGRhdGEtc291cmNlLWxpbmU9IjgiIGRhdGEtdWlkPSJlbnQwMDE0IiBpZD0iZW50aXR5XyYjMjYyMzQ7JiMzMzAyMTsmIzIzNDU3OyYjMjY1OTc7Ij48cmVjdCBmaWxsPSIjRjFGMUYxIiBoZWlnaHQ9IjQ4IiByeD0iMi41IiByeT0iMi41IiBzdHlsZT0ic3Ryb2tlOiMxODE4MTg7c3Ryb2tlLXdpZHRoOjAuNTsiIHdpZHRoPSI4OCIgeD0iNDEzIiB5PSIyNTYiLz48ZWxsaXBzZSBjeD0iNDI4IiBjeT0iMjcyIiBmaWxsPSIjQUREMUIyIiByeD0iMTEiIHJ5PSIxMSIgc3R5bGU9InN0cm9rZTojMTgxODE4O3N0cm9rZS13aWR0aDoxOyIvPjxwYXRoIGQ9Ik00MjUuNjI1LDI3Ni4yNSBMNDI1LjYyNSwyNzggTDQzMC41NjI1LDI3OCBMNDMwLjU2MjUsMjc2LjI1IEw0MjUuNjI1LDI3Ni4yNSBaIE00MjYuMzEyNSwyNzYuOTM3NSBRNDI2LjMxMjUsMjc2LjkzNzUgNDI2LjMxMjUsMjY3Ljc1IEw0MjQuNTYyNSwyNjcuNzUgUTQyNC41NjI1LDI2Ny43NSA0MjQuNTYyNSwyNzYuOTM3NSBMNDI2LjMxMjUsMjc2LjkzNzUgWiBNNDI5Ljg3NSwyNzYuOTM3NSBMNDMxLjYyNSwyNzYuOTM3NSBRNDMxLjYyNSwyNzYuOTM3NSA0MzEuNjI1LDI3NC4xMjUgTDQyOS44NzUsMjc0LjEyNSBRNDI5Ljg3NSwyNzQuMTI1IDQyOS44NzUsMjc2LjkzNzUgWiBNNDI5Ljg3NSwyNjcuNzUgUTQyOS44NzUsMjY3Ljc1IDQyOS44NzUsMjcwLjU2MjUgTDQzMS42MjUsMjcwLjU2MjUgUTQzMS42MjUsMjcwLjU2MjUgNDMxLjYyNSwyNjcuNzUgTDQyOS44NzUsMjY3Ljc1IFogTTQyNS42MjUsMjY4LjQzNzUgTDQzMC41NjI1LDI2OC40Mzc1IEw0MzAuNTYyNSwyNjYuNjg3NSBMNDI1LjYyNSwyNjYuNjg3NSBMNDI1LjYyNSwyNjguNDM3NSBaICIgZmlsbD0iIzAwMDAwMCIvPjx0ZXh0IGZpbGw9IiMwMDAwMDAiIGZvbnQtZmFtaWx5PSJzYW5zLXNlcmlmIiBmb250LXNpemU9IjE0IiBsZW5ndGhBZGp1c3Q9InNwYWNpbmciIHRleHRMZW5ndGg9IjU2IiB4PSI0NDIiIHk9IjI3Ny43NDIyIj4mIzI2MjM0OyYjMzMwMjE7JiMyMzQ1NzsmIzI2NTk3OzwvdGV4dD48bGluZSBzdHlsZT0ic3Ryb2tlOiMxODE4MTg7c3Ryb2tlLXdpZHRoOjAuNTsiIHgxPSI0MTQiIHgyPSI1MDAiIHkxPSIyODgiIHkyPSIyODgiLz48bGluZSBzdHlsZT0ic3Ryb2tlOiMxODE4MTg7c3Ryb2tlLXdpZHRoOjAuNTsiIHgxPSI0MTQiIHgyPSI1MDAiIHkxPSIyOTYiIHkyPSIyOTYiLz48L2c+PCEtLWNsYXNzID8/Pz8tLT48ZyBjbGFzcz0iZW50aXR5IiBkYXRhLWVudGl0eT0iJiMyMzQ1NzsmIzI2NTk3OyYjMzI0Njc7JiMyNjUyNDsiIGRhdGEtc291cmNlLWxpbmU9IjExIiBkYXRhLXVpZD0iZW50MDAxNyIgaWQ9ImVudGl0eV8mIzIzNDU3OyYjMjY1OTc7JiMzMjQ2NzsmIzI2NTI0OyI+PHJlY3QgZmlsbD0iI0YxRjFGMSIgaGVpZ2h0PSI0OCIgcng9IjIuNSIgcnk9IjIuNSIgc3R5bGU9InN0cm9rZTojMTgxODE4O3N0cm9rZS13aWR0aDowLjU7IiB3aWR0aD0iODgiIHg9IjU1NyIgeT0iNDAiLz48ZWxsaXBzZSBjeD0iNTcyIiBjeT0iNTYiIGZpbGw9IiNBREQxQjIiIHJ4PSIxMSIgcnk9IjExIiBzdHlsZT0ic3Ryb2tlOiMxODE4MTg7c3Ryb2tlLXdpZHRoOjE7Ii8+PHBhdGggZD0iTTU2OS42MjUsNjAuMjUgTDU2OS42MjUsNjIgTDU3NC41NjI1LDYyIEw1NzQuNTYyNSw2MC4yNSBMNTY5LjYyNSw2MC4yNSBaIE01NzAuMzEyNSw2MC45Mzc1IFE1NzAuMzEyNSw2MC45Mzc1IDU3MC4zMTI1LDUxLjc1IEw1NjguNTYyNSw1MS43NSBRNTY4LjU2MjUsNTEuNzUgNTY4LjU2MjUsNjAuOTM3NSBMNTcwLjMxMjUsNjAuOTM3NSBaIE01NzMuODc1LDYwLjkzNzUgTDU3NS42MjUsNjAuOTM3NSBRNTc1LjYyNSw2MC45Mzc1IDU3NS42MjUsNTguMTI1IEw1NzMuODc1LDU4LjEyNSBRNTczLjg3NSw1OC4xMjUgNTczLjg3NSw2MC45Mzc1IFogTTU3My44NzUsNTEuNzUgUTU3My44NzUsNTEuNzUgNTczLjg3NSw1NC41NjI1IEw1NzUuNjI1LDU0LjU2MjUgUTU3NS42MjUsNTQuNTYyNSA1NzUuNjI1LDUxLjc1IEw1NzMuODc1LDUxLjc1IFogTTU2OS42MjUsNTIuNDM3NSBMNTc0LjU2MjUsNTIuNDM3NSBMNTc0LjU2MjUsNTAuNjg3NSBMNTY5LjYyNSw1MC42ODc1IEw1NjkuNjI1LDUyLjQzNzUgWiAiIGZpbGw9IiMwMDAwMDAiLz48dGV4dCBmaWxsPSIjMDAwMDAwIiBmb250LWZhbWlseT0ic2Fucy1zZXJpZiIgZm9udC1zaXplPSIxNCIgbGVuZ3RoQWRqdXN0PSJzcGFjaW5nIiB0ZXh0TGVuZ3RoPSI1NiIgeD0iNTg2IiB5PSI2MS43NDIyIj4mIzIzNDU3OyYjMjY1OTc7JiMzMjQ2NzsmIzI2NTI0OzwvdGV4dD48bGluZSBzdHlsZT0ic3Ryb2tlOiMxODE4MTg7c3Ryb2tlLXdpZHRoOjAuNTsiIHgxPSI1NTgiIHgyPSI2NDQiIHkxPSI3MiIgeTI9IjcyIi8+PGxpbmUgc3R5bGU9InN0cm9rZTojMTgxODE4O3N0cm9rZS13aWR0aDowLjU7IiB4MT0iNTU4IiB4Mj0iNjQ0IiB5MT0iODAiIHkyPSI4MCIvPjwvZz48IS0tY2xhc3MgPz8/Py0tPjxnIGNsYXNzPSJlbnRpdHkiIGRhdGEtZW50aXR5PSImIzIzNTQ4OyYjMjA5ODY7JiMyNTI1MzsmIzM0OTIwOyIgZGF0YS1zb3VyY2UtbGluZT0iMTEiIGRhdGEtdWlkPSJlbnQwMDE4IiBpZD0iZW50aXR5XyYjMjM1NDg7JiMyMDk4NjsmIzI1MjUzOyYjMzQ5MjA7Ij48cmVjdCBmaWxsPSIjRjFGMUYxIiBoZWlnaHQ9IjQ4IiByeD0iMi41IiByeT0iMi41IiBzdHlsZT0ic3Ryb2tlOiMxODE4MTg7c3Ryb2tlLXdpZHRoOjAuNTsiIHdpZHRoPSI4OCIgeD0iNTU3IiB5PSIxNDgiLz48ZWxsaXBzZSBjeD0iNTcyIiBjeT0iMTY0IiBmaWxsPSIjQUREMUIyIiByeD0iMTEiIHJ5PSIxMSIgc3R5bGU9InN0cm9rZTojMTgxODE4O3N0cm9rZS13aWR0aDoxOyIvPjxwYXRoIGQ9Ik01NjkuNjI1LDE2OC4yNSBMNTY5LjYyNSwxNzAgTDU3NC41NjI1LDE3MCBMNTc0LjU2MjUsMTY4LjI1IEw1NjkuNjI1LDE2OC4yNSBaIE01NzAuMzEyNSwxNjguOTM3NSBRNTcwLjMxMjUsMTY4LjkzNzUgNTcwLjMxMjUsMTU5Ljc1IEw1NjguNTYyNSwxNTkuNzUgUTU2OC41NjI1LDE1OS43NSA1NjguNTYyNSwxNjguOTM3NSBMNTcwLjMxMjUsMTY4LjkzNzUgWiBNNTczLjg3NSwxNjguOTM3NSBMNTc1LjYyNSwxNjguOTM3NSBRNTc1LjYyNSwxNjguOTM3NSA1NzUuNjI1LDE2Ni4xMjUgTDU3My44NzUsMTY2LjEyNSBRNTczLjg3NSwxNjYuMTI1IDU3My44NzUsMTY4LjkzNzUgWiBNNTczLjg3NSwxNTkuNzUgUTU3My44NzUsMTU5Ljc1IDU3My44NzUsMTYyLjU2MjUgTDU3NS42MjUsMTYyLjU2MjUgUTU3NS42MjUsMTYyLjU2MjUgNTc1LjYyNSwxNTkuNzUgTDU3My44NzUsMTU5Ljc1IFogTTU2OS42MjUsMTYwLjQzNzUgTDU3NC41NjI1LDE2MC40Mzc1IEw1NzQuNTYyNSwxNTguNjg3NSBMNTY5LjYyNSwxNTguNjg3NSBMNTY5LjYyNSwxNjAuNDM3NSBaICIgZmlsbD0iIzAwMDAwMCIvPjx0ZXh0IGZpbGw9IiMwMDAwMDAiIGZvbnQtZmFtaWx5PSJzYW5zLXNlcmlmIiBmb250LXNpemU9IjE0IiBsZW5ndGhBZGp1c3Q9InNwYWNpbmciIHRleHRMZW5ndGg9IjU2IiB4PSI1ODYiIHk9IjE2OS43NDIyIj4mIzIzNTQ4OyYjMjA5ODY7JiMyNTI1MzsmIzM0OTIwOzwvdGV4dD48bGluZSBzdHlsZT0ic3Ryb2tlOiMxODE4MTg7c3Ryb2tlLXdpZHRoOjAuNTsiIHgxPSI1NTgiIHgyPSI2NDQiIHkxPSIxODAiIHkyPSIxODAiLz48bGluZSBzdHlsZT0ic3Ryb2tlOiMxODE4MTg7c3Ryb2tlLXdpZHRoOjAuNTsiIHgxPSI1NTgiIHgyPSI2NDQiIHkxPSIxODgiIHkyPSIxODgiLz48L2c+PCEtLWxpbmsgPz8/PyB0byA/Pz8/Py0tPjxnIGNsYXNzPSJsaW5rIiBkYXRhLWVudGl0eS0xPSImIzIzNDU3OyYjMjY1OTc7JiMzNTIwMTsmIzI3NzE0OyIgZGF0YS1lbnRpdHktMj0iJiMzMTk5NTsmIzMyNDc5OyYjMjU5Njg7JiMyNTQ1NDsmIzI0MjExOyIgZGF0YS1zb3VyY2UtbGluZT0iMiIgZGF0YS11aWQ9ImxuazUiIGlkPSJsaW5rXyYjMjM0NTc7JiMyNjU5NzsmIzM1MjAxOyYjMjc3MTQ7XyYjMzE5OTU7JiMzMjQ3OTsmIzI1OTY4OyYjMjU0NTQ7JiMyNDIxMTsiPjxwYXRoIGNvZGVMaW5lPSIyIiBkPSJNMjg2LjMxLDg4IEMyNjUuODIsMTA1LjY2IDI0Mi4xODQ2LDEyNi4wMjI1IDIyMS42MDQ2LDE0My43NjI1IiBmaWxsPSJub25lIiBpZD0iJiMyMzQ1NzsmIzI2NTk3OyYjMzUyMDE7JiMyNzcxNDstdG8tJiMzMTk5NTsmIzMyNDc5OyYjMjU5Njg7JiMyNTQ1NDsmIzI0MjExOyIgc3R5bGU9InN0cm9rZTojMTgxODE4O3N0cm9rZS13aWR0aDoxOyIvPjxwb2x5Z29uIGZpbGw9IiMxODE4MTgiIHBvaW50cz0iMjE3LjA2LDE0Ny42OCwyMjYuNDg4NiwxNDQuODMzNSwyMjAuODQ3MiwxNDQuNDE1NCwyMjEuMjY1MywxMzguNzc0MSwyMTcuMDYsMTQ3LjY4IiBzdHlsZT0ic3Ryb2tlOiMxODE4MTg7c3Ryb2tlLXdpZHRoOjE7Ii8+PC9nPjwhLS1saW5rID8/Pz8gdG8gPz8/Pz8tLT48ZyBjbGFzcz0ibGluayIgZGF0YS1lbnRpdHktMT0iJiMyMjUyMjsmIzMwNzg0OyYjMjU5Njg7JiMyNTQ1NDsiIGRhdGEtZW50aXR5LTI9IiYjMzE5OTU7JiMzMjQ3OTsmIzI1OTY4OyYjMjU0NTQ7JiMyNDIxMTsiIGRhdGEtc291cmNlLWxpbmU9IjMiIGRhdGEtdWlkPSJsbms3IiBpZD0ibGlua18mIzIyNTIyOyYjMzA3ODQ7JiMyNTk2ODsmIzI1NDU0O18mIzMxOTk1OyYjMzI0Nzk7JiMyNTk2ODsmIzI1NDU0OyYjMjQyMTE7Ij48cGF0aCBjb2RlTGluZT0iMyIgZD0iTTE5MCw4OCBDMTkwLDEwNS42NiAxOTAsMTIzLjk0IDE5MCwxNDEuNjgiIGZpbGw9Im5vbmUiIGlkPSImIzIyNTIyOyYjMzA3ODQ7JiMyNTk2ODsmIzI1NDU0Oy10by0mIzMxOTk1OyYjMzI0Nzk7JiMyNTk2ODsmIzI1NDU0OyYjMjQyMTE7IiBzdHlsZT0ic3Ryb2tlOiMxODE4MTg7c3Ryb2tlLXdpZHRoOjE7Ii8+PHBvbHlnb24gZmlsbD0iIzE4MTgxOCIgcG9pbnRzPSIxOTAsMTQ3LjY4LDE5NCwxMzguNjgsMTkwLDE0Mi42OCwxODYsMTM4LjY4LDE5MCwxNDcuNjgiIHN0eWxlPSJzdHJva2U6IzE4MTgxODtzdHJva2Utd2lkdGg6MTsiLz48L2c+PCEtLWxpbmsgPz8/PyB0byA/Pz8/Py0tPjxnIGNsYXNzPSJsaW5rIiBkYXRhLWVudGl0eS0xPSImIzIyMjcwOyYjMjkyNTU7JiMzNjE2NDsmIzI2MDA5OyIgZGF0YS1lbnRpdHktMj0iJiMzMTk5NTsmIzMyNDc5OyYjMjU5Njg7JiMyNTQ1NDsmIzI0MjExOyIgZGF0YS1zb3VyY2UtbGluZT0iNCIgZGF0YS11aWQ9ImxuazkiIGlkPSJsaW5rXyYjMjIyNzA7JiMyOTI1NTsmIzM2MTY0OyYjMjYwMDk7XyYjMzE5OTU7JiMzMjQ3OTsmIzI1OTY4OyYjMjU0NTQ7JiMyNDIxMTsiPjxwYXRoIGNvZGVMaW5lPSI0IiBkPSJNOTMuNjksODggQzExNC4xOCwxMDUuNjYgMTM3LjgxNTQsMTI2LjAyMjUgMTU4LjM5NTQsMTQzLjc2MjUiIGZpbGw9Im5vbmUiIGlkPSImIzIyMjcwOyYjMjkyNTU7JiMzNjE2NDsmIzI2MDA5Oy10by0mIzMxOTk1OyYjMzI0Nzk7JiMyNTk2ODsmIzI1NDU0OyYjMjQyMTE7IiBzdHlsZT0ic3Ryb2tlOiMxODE4MTg7c3Ryb2tlLXdpZHRoOjE7Ii8+PHBvbHlnb24gZmlsbD0iIzE4MTgxOCIgcG9pbnRzPSIxNjIuOTQsMTQ3LjY4LDE1OC43MzQ3LDEzOC43NzQxLDE1OS4xNTI4LDE0NC40MTU0LDE1My41MTE0LDE0NC44MzM1LDE2Mi45NCwxNDcuNjgiIHN0eWxlPSJzdHJva2U6IzE4MTgxODtzdHJva2Utd2lkdGg6MTsiLz48L2c+PCEtLWxpbmsgPz8/PyB0byBPQ1I/Py0tPjxnIGNsYXNzPSJsaW5rIiBkYXRhLWVudGl0eS0xPSImIzI1OTY4OyYjMjU0NTQ7JiMyNjY1NzsmIzM5NTY0OyIgZGF0YS1lbnRpdHktMj0iT0NSJiMzNTc4MjsmIzIxMDM1OyIgZGF0YS1zb3VyY2UtbGluZT0iNyIgZGF0YS11aWQ9ImxuazEzIiBpZD0ibGlua18mIzI1OTY4OyYjMjU0NTQ7JiMyNjY1NzsmIzM5NTY0O19PQ1ImIzM1NzgyOyYjMjEwMzU7Ij48cGF0aCBjb2RlTGluZT0iNyIgZD0iTTQ1Nyw4OCBDNDU3LDEwNS42NiA0NTcsMTIzLjk0IDQ1NywxNDEuNjgiIGZpbGw9Im5vbmUiIGlkPSImIzI1OTY4OyYjMjU0NTQ7JiMyNjY1NzsmIzM5NTY0Oy10by1PQ1ImIzM1NzgyOyYjMjEwMzU7IiBzdHlsZT0ic3Ryb2tlOiMxODE4MTg7c3Ryb2tlLXdpZHRoOjE7Ii8+PHBvbHlnb24gZmlsbD0iIzE4MTgxOCIgcG9pbnRzPSI0NTcsMTQ3LjY4LDQ2MSwxMzguNjgsNDU3LDE0Mi42OCw0NTMsMTM4LjY4LDQ1NywxNDcuNjgiIHN0eWxlPSJzdHJva2U6IzE4MTgxODtzdHJva2Utd2lkdGg6MTsiLz48L2c+PCEtLWxpbmsgT0NSPz8gdG8gPz8/Py0tPjxnIGNsYXNzPSJsaW5rIiBkYXRhLWVudGl0eS0xPSJPQ1ImIzM1NzgyOyYjMjEwMzU7IiBkYXRhLWVudGl0eS0yPSImIzI2MjM0OyYjMzMwMjE7JiMyMzQ1NzsmIzI2NTk3OyIgZGF0YS1zb3VyY2UtbGluZT0iOCIgZGF0YS11aWQ9ImxuazE1IiBpZD0ibGlua19PQ1ImIzM1NzgyOyYjMjEwMzU7XyYjMjYyMzQ7JiMzMzAyMTsmIzIzNDU3OyYjMjY1OTc7Ij48cGF0aCBjb2RlTGluZT0iOCIgZD0iTTQ1NywxOTYgQzQ1NywyMTMuNjYgNDU3LDIzMS45NCA0NTcsMjQ5LjY4IiBmaWxsPSJub25lIiBpZD0iT0NSJiMzNTc4MjsmIzIxMDM1Oy10by0mIzI2MjM0OyYjMzMwMjE7JiMyMzQ1NzsmIzI2NTk3OyIgc3R5bGU9InN0cm9rZTojMTgxODE4O3N0cm9rZS13aWR0aDoxOyIvPjxwb2x5Z29uIGZpbGw9IiMxODE4MTgiIHBvaW50cz0iNDU3LDI1NS42OCw0NjEsMjQ2LjY4LDQ1NywyNTAuNjgsNDUzLDI0Ni42OCw0NTcsMjU1LjY4IiBzdHlsZT0ic3Ryb2tlOiMxODE4MTg7c3Ryb2tlLXdpZHRoOjE7Ii8+PC9nPjwhLS1saW5rID8/Pz8gdG8gPz8/Py0tPjxnIGNsYXNzPSJsaW5rIiBkYXRhLWVudGl0eS0xPSImIzIzNDU3OyYjMjY1OTc7JiMzMjQ2NzsmIzI2NTI0OyIgZGF0YS1lbnRpdHktMj0iJiMyMzU0ODsmIzIwOTg2OyYjMjUyNTM7JiMzNDkyMDsiIGRhdGEtc291cmNlLWxpbmU9IjExIiBkYXRhLXVpZD0ibG5rMTkiIGlkPSJsaW5rXyYjMjM0NTc7JiMyNjU5NzsmIzMyNDY3OyYjMjY1MjQ7XyYjMjM1NDg7JiMyMDk4NjsmIzI1MjUzOyYjMzQ5MjA7Ij48cGF0aCBjb2RlTGluZT0iMTEiIGQ9Ik02MDEsODggQzYwMSwxMDUuNjYgNjAxLDEyMy45NCA2MDEsMTQxLjY4IiBmaWxsPSJub25lIiBpZD0iJiMyMzQ1NzsmIzI2NTk3OyYjMzI0Njc7JiMyNjUyNDstdG8tJiMyMzU0ODsmIzIwOTg2OyYjMjUyNTM7JiMzNDkyMDsiIHN0eWxlPSJzdHJva2U6IzE4MTgxODtzdHJva2Utd2lkdGg6MTsiLz48cG9seWdvbiBmaWxsPSIjMTgxODE4IiBwb2ludHM9IjYwMSwxNDcuNjgsNjA1LDEzOC42OCw2MDEsMTQyLjY4LDU5NywxMzguNjgsNjAxLDE0Ny42OCIgc3R5bGU9InN0cm9rZTojMTgxODE4O3N0cm9rZS13aWR0aDoxOyIvPjwvZz48IS0tU1JDPVtBcWZEQmFkQ0l5ejlMTldzVFNFcHRkTEZzemtVQmNiTmdFUEkwOEFkd25PLWN4X3FuUkI2UG5rUjU3SHJ4SElVUnp4elZGVHlnQ2ZUYW82QXZrendsaDAxOGVQUnFVbnpwcGxSTnNualVKUGo5YlA1akxuNVM5U3lzUnR4UVRWMmZxalFkYXplV3hlNGVsM1BXZUtsTF9NMHpWaXgxeHJPdF9RcU9wTE82aXUzb3BzUmtVajV5cnc4dXI0Q1Zodnh5aER2U3J4aWNfb3FWSFVBNW80SU9DckZyLXkxb1p4aE1sZll1R2drTVcwMF0tLT48L2c+PC9zdmc+;" vertex="1" parent="WIyWlLk6GJQsqaUBKTNV-1">
            <mxGeometry x="80" y="240" width="667" height="326" as="geometry" />
          </mxCell>
        </UserObject>
      </root>
    </mxGraphModel>
  </diagram>
</mxfile>
